<?xml version="1.0" encoding="utf-8"?>
<!-- Generator: Adobe Illustrator 15.1.0, SVG Export Plug-In . SVG Version: 6.00 Build 0)  -->
<!DOCTYPE svg PUBLIC "-//W3C//DTD SVG 1.1//EN" "http://www.w3.org/Graphics/SVG/1.1/DTD/svg11.dtd">
<svg version="1.1" id="Layer_1" xmlns="http://www.w3.org/2000/svg" xmlns:xlink="http://www.w3.org/1999/xlink" x="0px" y="0px"
	 width="695.59px" height="106.041px" viewBox="0 0 695.59 106.041" enable-background="new 0 0 695.59 106.041"
	 xml:space="preserve">
<path id="ODAY" d="M691.039,39.483c-1.268,0.633-2.436,1.453-3.512,2.466c-1.074,1.012-2.102,2.215-3.082,3.605
	c-0.98,1.392-2.039,2.971-3.176,4.74c-0.76,1.203-1.818,2.833-3.178,4.887c-1.359,2.056-2.75,4.189-4.172,6.402
	c-1.424,2.214-2.801,4.332-4.127,6.356c-1.33,2.023-2.371,3.603-3.129,4.739v19.065c0,1.834,0.047,3.621,0.141,5.358
	c0.094,1.74,0.395,2.958,0.9,3.652c0.947,1.394,2.182,2.311,3.699,2.752c1.518,0.443,2.973,0.79,4.363,1.042v0.949h-29.119v-0.949
	c1.645-0.188,3.084-0.489,4.316-0.899c1.23-0.41,2.545-1.408,3.938-2.989c0.316-0.316,0.553-0.854,0.711-1.611
	c0.156-0.758,0.283-1.614,0.379-2.562c0.094-0.949,0.156-1.959,0.189-3.034c0.031-1.076,0.049-2.119,0.049-3.131
	c0.043-1.771,0.078-3.873,0.102-6.309c0.021-2.434,0.033-5.39,0.033-8.868c-0.127-0.188-0.506-0.789-1.137-1.802
	c-0.633-1.012-1.408-2.261-2.324-3.748c-0.918-1.485-1.93-3.146-3.035-4.979c-1.107-1.834-2.197-3.618-3.271-5.359
	c-1.076-1.738-2.088-3.366-3.037-4.884c-0.949-1.516-1.74-2.75-2.371-3.699c-1.203-1.833-2.293-3.51-3.273-5.027
	c-0.98-1.517-1.975-2.812-2.986-3.888c-1.012-1.076-2.008-1.929-2.988-2.562c-0.98-0.631-2.1-0.98-3.367-1.044v-0.948h28.734v0.948
	c-0.945,0.063-1.891,0.158-2.84,0.286c-0.949,0.127-1.834,0.332-2.656,0.615c-0.82,0.284-1.486,0.663-1.992,1.138
	c-0.506,0.474-0.758,1.124-0.758,1.945s0.457,2.07,1.375,3.745c0.916,1.677,1.881,3.368,2.895,5.075
	c0.693,1.139,1.516,2.513,2.465,4.126c0.945,1.614,1.984,3.32,3.119,5.122c1.133,1.801,2.283,3.65,3.447,5.547
	c1.164,1.897,2.252,3.701,3.262,5.407c0.816-1.2,1.826-2.733,3.027-4.599c1.203-1.865,2.42-3.763,3.654-5.69
	c1.232-1.929,2.402-3.78,3.51-5.55c1.105-1.771,1.943-3.163,2.514-4.175c0.314-0.505,0.662-1.089,1.041-1.754
	s0.742-1.358,1.09-2.087c0.348-0.726,0.648-1.47,0.902-2.228s0.381-1.454,0.381-2.087c0-1.012-0.254-1.802-0.76-2.371
	c-0.506-0.568-1.154-1.01-1.943-1.328c-0.793-0.315-1.66-0.552-2.609-0.711c-0.949-0.157-1.865-0.301-2.75-0.428v-0.948h21.908
	v0.948C693.82,38.409,692.303,38.852,691.039,39.483 M595.938,53.359c0.855,2.182,1.803,4.585,2.846,7.211
	c1.045,2.625,2.119,5.362,3.229,8.208c1.104,2.846,2.195,5.692,3.27,8.539h-23.617c1.516-3.731,2.924-7.194,4.221-10.39
	c1.295-3.192,2.48-6.055,3.557-8.588c1.074-2.53,1.975-4.681,2.703-6.451c0.729-1.77,1.281-3.067,1.66-3.891
	C594.375,49.391,595.086,51.178,595.938,53.359 M633.928,105.499v-1.139c-1.457-0.064-2.721-0.349-3.797-0.854
	s-1.975-1.09-2.701-1.755c-0.729-0.665-1.312-1.312-1.756-1.946c-0.443-0.63-0.729-1.072-0.854-1.327
	c-0.76-1.645-1.439-3.115-2.041-4.411c-0.6-1.297-1.248-2.927-1.941-4.89c-1.52-3.983-3.037-8.015-4.553-12.097
	c-1.518-4.08-3.084-8.302-4.695-12.668c-1.615-4.363-3.307-8.902-5.076-13.615s-3.635-9.695-5.596-14.945h-0.758
	c-0.254,0.444-0.615,1.015-1.09,1.708c-0.475,0.697-1.061,1.426-1.756,2.184c-0.697,0.758-1.504,1.485-2.42,2.181
	c-0.916,0.696-1.943,1.298-3.08,1.804l0.949,2.088c-1.521,3.544-3.135,7.354-4.84,11.435c-1.707,4.08-3.432,8.128-5.168,12.144
	c-1.742,4.02-3.434,7.926-5.076,11.72c-1.643,3.796-3.129,7.179-4.457,10.151c-1.455,3.227-2.689,5.663-3.701,7.309
	c-1.012,1.645-1.738,2.688-2.18,3.129c-0.191,0.255-0.871,0.73-2.039,1.425c-1.17,0.697-2.576,1.139-4.221,1.328v1.044h20.203
	v-0.949c-0.822-0.125-1.693-0.267-2.609-0.425c-0.918-0.157-1.771-0.411-2.561-0.758c-0.793-0.349-1.439-0.788-1.945-1.326
	s-0.758-1.217-0.758-2.039c0-1.388,0.662-3.787,1.992-7.2c0.885-2.211,1.77-4.403,2.654-6.585c0.885-2.178,1.805-4.469,2.752-6.87
	h25.232c0.947,2.465,1.832,4.834,2.654,7.107c0.82,2.273,1.547,4.343,2.18,6.206c0.631,1.863,1.123,3.442,1.471,4.738
	c0.346,1.296,0.521,2.228,0.521,2.795c0,0.885-0.301,1.61-0.9,2.179c-0.604,0.569-1.297,1.012-2.086,1.327
	c-0.793,0.314-1.551,0.536-2.277,0.663s-1.184,0.188-1.375,0.188v0.949H633.928z M547.857,59.875
	c-1.139-3.476-2.719-6.622-4.742-9.437c-2.023-2.813-4.426-5.199-7.207-7.159c-2.781-1.961-5.818-3.226-9.105-3.796
	c-1.268-0.252-2.658-0.458-4.174-0.617c-1.518-0.156-3.383-0.237-5.596-0.237c-0.76,0-1.582,0.017-2.467,0.049
	s-1.756,0.096-2.607,0.188c-0.855,0.096-1.646,0.174-2.371,0.237c-0.729,0.063-1.314,0.158-1.756,0.285
	c-0.324,3.101-0.52,7.368-0.582,12.806c-0.064,5.437-0.096,11.918-0.096,19.441v11.1c0,3.29,0.045,5.976,0.137,8.062
	c0,0.885,0.045,1.85,0.141,2.895c0.094,1.044,0.203,2.056,0.33,3.033c0.127,0.98,0.332,1.865,0.617,2.655
	c0.283,0.792,0.615,1.376,0.996,1.755c1.262,1.267,2.857,2.073,4.785,2.42c1.928,0.348,3.744,0.521,5.451,0.521
	c1.58,0,3.207-0.078,4.883-0.237c1.674-0.157,3.236-0.458,4.691-0.902c6.824-1.959,11.926-5.767,15.307-11.429
	c3.383-5.659,5.074-12.631,5.074-20.913C549.566,66.928,548.996,63.354,547.857,59.875 M559.514,82.91
	c-1.135,3.607-2.684,6.708-4.639,9.301c-1.959,2.596-4.234,4.747-6.82,6.455c-2.59,1.709-5.336,3.068-8.24,4.08
	c-2.906,1.012-5.906,1.726-8.998,2.136c-3.096,0.411-6.094,0.617-8.996,0.617h-34.584v-0.949c1.578-0.188,3.111-0.599,4.598-1.231
	c1.486-0.632,2.609-1.392,3.369-2.278c0.314-0.316,0.553-0.854,0.711-1.611c0.156-0.758,0.299-1.613,0.426-2.562
	c0.127-0.949,0.223-1.959,0.287-3.034c0.062-1.076,0.094-2.119,0.094-3.131c0-0.885,0.01-2.086,0.035-3.604
	c0.02-1.516,0.043-3.176,0.066-4.979c0.021-1.801,0.033-3.652,0.033-5.549v-5.5V52.573v-3.415c0-1.14-0.047-2.198-0.141-3.179
	c-0.096-0.978-0.238-1.862-0.428-2.654c-0.191-0.789-0.475-1.406-0.854-1.851c-0.949-1.137-2.088-1.927-3.414-2.371
	c-1.328-0.442-2.814-0.758-4.457-0.948v-0.948c2.654,0,6.48-0.022,11.473-0.068c4.992-0.045,11.027-0.067,18.105-0.067h6.068
	c2.084,0,4.17,0.095,6.254,0.286c2.086,0.189,4.172,0.506,6.256,0.947c2.086,0.445,4.141,1.108,6.164,1.993
	c2.652,1.139,5.148,2.595,7.486,4.365c2.338,1.771,4.375,3.877,6.113,6.312c1.74,2.438,3.131,5.252,4.172,8.447
	s1.564,6.849,1.564,10.961C561.219,75.13,560.648,79.305,559.514,82.91 M467.389,59.308c-0.982-3.921-2.471-7.478-4.465-10.671
	c-1.994-3.191-4.482-5.786-7.459-7.777c-2.977-1.99-6.494-2.988-10.545-2.988c-4.119,0-7.682,0.998-10.691,2.988
	c-3.008,1.991-5.479,4.568-7.41,7.729c-1.932,3.163-3.357,6.751-4.275,10.766c-0.918,4.017-1.377,8.079-1.377,12.188
	c0,4.3,0.506,8.441,1.521,12.426c1.012,3.984,2.518,7.493,4.51,10.529c1.996,3.036,4.498,5.468,7.51,7.302
	c3.008,1.833,6.508,2.75,10.498,2.75c3.988,0,7.457-1.01,10.402-3.034c2.945-2.023,5.398-4.632,7.363-7.824
	c1.965-3.193,3.436-6.781,4.418-10.767c0.982-3.983,1.473-7.967,1.473-11.951C468.861,67.116,468.371,63.229,467.389,59.308
	 M477.799,84.964c-1.9,4.304-4.482,8.039-7.744,11.202c-3.262,3.165-7.064,5.602-11.404,7.311c-4.34,1.71-8.949,2.564-13.826,2.564
	c-4.814,0-9.377-0.839-13.684-2.516c-4.309-1.677-8.08-4.053-11.311-7.122c-3.23-3.07-5.781-6.739-7.648-11.012
	c-1.869-4.272-2.805-8.973-2.805-14.101c0-5.441,0.98-10.332,2.945-14.668s4.609-8.007,7.936-11.013
	c3.326-3.008,7.223-5.317,11.689-6.931c4.467-1.612,9.172-2.422,14.113-2.422c5.383,0,10.215,0.951,14.492,2.851
	c4.277,1.898,7.904,4.445,10.881,7.643c2.975,3.197,5.258,6.883,6.842,11.06c1.584,4.178,2.375,8.546,2.375,13.102
	C480.65,75.977,479.699,80.66,477.799,84.964"/>
<path id="T" d="M407.76,55.278c-0.51-1.14-1.109-2.325-1.805-3.558c-0.693-1.231-1.406-2.386-2.135-3.461
	c-0.727-1.076-1.439-2.07-2.133-2.987c-0.695-0.917-1.297-1.597-1.803-2.041c-1.328-1.265-2.768-2.103-4.316-2.514
	c-1.551-0.411-3.525-0.647-5.926-0.711c-1.203,0-2.246-0.021-3.131-0.067c-0.887-0.044-1.771-0.068-2.656-0.068h-2.75h-3.51
	c0,1.582-0.023,3.733-0.068,6.453c-0.047,2.721-0.068,5.566-0.068,8.539v8.824v7.214v21.063c0,1.835,0.047,3.59,0.143,5.268
	c0.094,1.677,0.395,2.862,0.9,3.557c0.947,1.393,2.289,2.342,4.031,2.848c1.738,0.509,3.303,0.888,4.695,1.14v0.947h-30.73v-0.947
	c1.643-0.191,3.225-0.506,4.742-0.949c1.516-0.442,3.002-1.486,4.459-3.131c0.314-0.316,0.553-0.836,0.711-1.565
	c0.156-0.728,0.283-1.549,0.379-2.468c0.094-0.917,0.156-1.914,0.189-2.99c0.031-1.075,0.047-2.119,0.047-3.131
	c0-0.885,0.012-2.054,0.035-3.51c0.02-1.455,0.045-3.068,0.068-4.84c0.02-1.771,0.033-3.606,0.033-5.503V71.28V39.871h-3.508h-2.75
	c-0.824,0-1.694,0.024-2.611,0.068c-0.917,0.047-1.975,0.067-3.176,0.067c-2.404,0.063-4.38,0.35-5.93,0.854
	c-1.551,0.506-2.987,1.391-4.315,2.654c-0.506,0.445-1.09,1.107-1.755,1.992s-1.359,1.852-2.085,2.895
	c-0.729,1.044-1.423,2.166-2.088,3.367s-1.187,2.37-1.565,3.51l-0.853-0.286l1.8-17.239c1.452,0.318,3.756-0.136,4.99,0.055
	c1.232,0.19,3.105,0.158,5.445,0.222c2.402,0.063,4.555,0.111,6.451,0.142c1.897,0.032,3.73,0.047,5.5,0.047h5.406h6.355h6.26
	c1.896,0,3.73-0.015,5.5-0.047c1.771-0.03,3.605-0.061,5.502-0.093c1.898-0.032,4.047-0.049,6.449-0.049
	c2.086-0.063,3.809-0.237,5.168-0.521c1.361-0.283,2.768-0.626,4.223-1.023l3.035,18.508L407.76,55.278z"/>
<path id="t" d="M338.098,46.17h-22.475v37.976c0,4.909,1.058,8.472,3.177,10.686c2.116,2.216,4.858,3.32,8.229,3.32
	c2.791,0,5.102-0.456,6.932-1.372c1.828-0.913,3.416-2.332,4.765-4.259l0.867,0.434c-0.578,1.443-1.372,2.96-2.384,4.548
	c-1.01,1.589-2.359,3.032-4.043,4.332c-1.685,1.3-3.66,2.311-5.92,3.032c-2.263,0.723-4.934,1.082-8.014,1.082
	c-2.021,0-3.962-0.311-5.818-0.938c-1.857-0.625-3.5-1.539-4.926-2.744c-1.426-1.202-2.592-2.549-3.494-4.043
	c-0.906-1.491-1.356-3.007-1.356-4.548c0-9.047,0.048-17.639,0.146-25.775c0.094-8.133,0.144-15.378,0.144-21.73h-10.541v-1.588
	L314.192,24.8h1.142v12.954h26.492L338.098,46.17z"/>
<path id="abou" d="M264.24,104.976h-1.011V90.393l-0.144-0.146c-1.061,1.639-2.36,3.371-3.899,5.198
	c-1.541,1.83-3.274,3.491-5.198,4.982c-1.927,1.494-4.068,2.671-6.426,3.538c-2.36,0.865-4.887,1.299-7.581,1.299
	c-6.161,0-10.71-1.827-13.645-5.487c-2.937-3.657-4.404-9-4.404-16.028V48.518V46.93c0-0.673-0.05-1.372-0.144-2.094
	c-0.097-0.723-0.17-1.395-0.217-2.022c-0.05-0.624-0.169-1.082-0.361-1.371c-0.386-0.867-0.939-1.492-1.66-1.877
	c-0.722-0.384-1.517-0.673-2.383-0.867c-0.866-0.191-1.782-0.311-2.744-0.36c-0.963-0.048-1.877-0.119-2.743-0.217v-1.589h22.237
	v42.02c0,6.354,0.965,11.046,2.901,14.079c1.936,3.031,5.564,4.548,10.884,4.548c2.031,0,3.797-0.265,5.298-0.794
	c1.498-0.528,2.851-1.203,4.061-2.022c1.209-0.815,2.321-1.755,3.336-2.814c1.016-1.059,1.961-2.166,2.832-3.321V47.073
	c0-0.961-0.097-2.188-0.289-3.682c-0.194-1.491-0.577-2.622-1.155-3.394c-1.155-0.48-2.721-0.866-4.693-1.154
	c-1.974-0.289-4.02-0.528-6.137-0.723v-1.589h24.259v57.036c0,0.772,0.072,1.349,0.216,1.733c0.145,0.386,0.553,0.818,1.228,1.3
	c0.866,0.481,2.141,1.106,3.826,1.877c1.683,0.771,3.105,1.396,4.26,1.877v0.866L264.24,104.976z M194.427,58.77
	c-0.722-3.754-1.902-7.22-3.538-10.396c-1.638-3.177-3.804-5.799-6.498-7.869c-2.696-2.069-6.017-3.104-9.963-3.104
	c-3.177,0-6.017,0.963-8.519,2.888c-2.505,1.927-4.646,4.453-6.426,7.58c-1.782,3.13-3.129,6.643-4.043,10.541
	c-0.916,3.899-1.372,7.87-1.372,11.913c0,4.429,0.384,8.616,1.156,12.562c0.769,3.947,2.021,7.436,3.754,10.469
	c1.733,3.032,3.946,5.438,6.642,7.219c2.694,1.783,5.92,2.672,9.674,2.672c3.755,0,6.907-1.131,9.458-3.394
	c2.55-2.26,4.621-5.102,6.209-8.52c1.589-3.416,2.744-7.098,3.466-11.046c0.722-3.945,1.083-7.603,1.083-10.974
	C195.51,66.038,195.149,62.523,194.427,58.77 M206.195,83.389c-1.83,4.382-4.284,8.208-7.364,11.479
	c-3.082,3.274-6.667,5.825-10.758,7.653c-4.092,1.83-8.399,2.743-12.923,2.743c-3.754,0-7.653-0.672-11.696-2.021
	c-4.043-1.347-7.775-3.487-11.191-6.426c-3.418-2.935-6.209-6.688-8.374-11.263c-2.166-4.571-3.249-9.938-3.249-16.101
	c0-4.426,0.841-8.711,2.527-12.851c1.683-4.138,4.043-7.797,7.075-10.974c3.032-3.178,6.689-5.727,10.974-7.653
	c4.282-1.924,9.025-2.888,14.223-2.888c3.849,0,7.748,0.722,11.696,2.166c3.946,1.443,7.531,3.588,10.757,6.426
	c3.224,2.84,5.871,6.402,7.942,10.685c2.069,4.285,3.104,9.314,3.104,15.089C208.938,74.364,208.022,79.01,206.195,83.389
	 M120.502,61.44c-0.912-3.321-2.304-6.256-4.174-8.808c-1.87-2.55-4.244-4.596-7.12-6.137c-2.879-1.539-6.284-2.311-10.216-2.311
	c-2.974,0-5.539,0.483-7.696,1.444c-2.159,0.964-3.935,2.07-5.325,3.32c-1.39,1.252-2.445,2.505-3.165,3.755
	c-0.72,1.252-1.079,2.165-1.079,2.743c-0.097,1.155-0.144,2.841-0.144,5.055V65.7v5.776c0,1.83,0.047,3.659,0.144,5.487
	c0.095,3.177,0.528,6.331,1.295,9.458c0.768,3.129,1.941,5.92,3.525,8.375c1.583,2.453,3.621,4.429,6.116,5.92
	c2.493,1.492,5.514,2.237,9.063,2.237c3.068,0,5.828-0.769,8.273-2.31c2.446-1.539,4.556-3.705,6.331-6.498
	c1.774-2.791,3.141-6.087,4.1-9.891c0.959-3.803,1.439-7.917,1.439-12.347C121.869,68.253,121.413,64.762,120.502,61.44
	 M132.627,83.678c-1.686,4.285-4.043,8.014-7.076,11.19c-3.032,3.178-6.619,5.656-10.757,7.437
	c-4.14,1.783-8.664,2.671-13.573,2.671c-5.487,0-10.494-0.744-15.017-2.238c-4.526-1.491-8.328-3.537-11.408-6.136h-0.722
	l-3.465,7.797h-1.011V14.44c-0.866-0.578-2.071-1.3-3.61-2.166c-1.541-0.866-3.129-1.733-4.765-2.599V8.809L80.717,0h1.155
	l-0.436,51.405l0.291,0.145c0.862-2.021,2.16-3.993,3.888-5.92c1.728-1.925,3.72-3.683,5.976-5.271
	c2.257-1.589,4.727-2.863,7.416-3.827c2.687-0.961,5.377-1.443,8.066-1.443c4.513,0,8.495,0.964,11.951,2.888
	c3.457,1.927,6.383,4.501,8.783,7.725c2.401,3.228,4.224,6.932,5.474,11.119c1.248,4.188,1.872,8.544,1.872,13.068
	C135.153,74.798,134.31,79.396,132.627,83.678 M35.81,65.557c-1.733,1.252-3.899,2.576-6.498,3.971
	c-2.599,1.396-5.126,2.912-7.58,4.548c-2.455,1.639-4.574,3.443-6.354,5.415c-1.782,1.975-2.671,4.212-2.671,6.714
	c0,2.504,0.866,4.766,2.599,6.787s3.993,3.032,6.787,3.032c2.502,0,4.715-0.289,6.642-0.866c1.924-0.578,3.704-1.683,5.342-3.32
	c1.156-1.06,1.733-2.406,1.733-4.045V65.557z M61.368,96.023c-0.772,1.733-1.782,3.299-3.032,4.693
	c-1.252,1.396-2.721,2.455-4.404,3.177c-1.686,0.721-3.538,1.082-5.56,1.082c-3.273,0-6.186-0.961-8.735-2.887
	c-2.552-1.926-3.827-5.293-3.827-10.108l-0.289-0.144c-0.771,1.252-1.805,2.647-3.104,4.187c-1.3,1.541-2.841,2.985-4.621,4.332
	c-1.782,1.349-3.754,2.432-5.92,3.249c-2.166,0.819-4.548,1.227-7.148,1.227c-1.541,0-3.104-0.217-4.692-0.649
	c-1.589-0.434-3.033-1.202-4.332-2.311c-1.3-1.105-2.36-2.526-3.177-4.26C1.708,95.88,1.3,93.763,1.3,91.259
	c0-2.694,1.083-5.293,3.249-7.797c2.166-2.503,4.837-4.766,8.014-6.787c3.176-2.021,5.992-3.754,8.447-5.198
	c2.454-1.444,4.595-2.671,6.425-3.682c1.828-1.012,3.441-1.878,4.837-2.6c1.395-0.722,2.575-1.372,3.538-1.95V48.373
	c0-0.191-0.169-0.649-0.505-1.372c-0.339-0.722-0.916-1.467-1.733-2.237c-0.819-0.771-1.949-1.467-3.393-2.094
	c-1.444-0.625-3.321-0.938-5.632-0.938c-1.541,0-3.057,0.266-4.548,0.794c-1.494,0.53-2.816,1.204-3.971,2.021
	c-1.155,0.818-2.071,1.638-2.744,2.454c-0.674,0.819-1.01,1.517-1.01,2.095v6.497c0,1.35-0.7,2.552-2.094,3.609
	c-1.397,1.062-2.913,1.589-4.548,1.589c-1.541,0-2.866-0.553-3.971-1.66C0.553,58.025,0,56.748,0,55.305
	c0-1.156,0.289-2.214,0.867-3.177c0.577-0.962,1.299-1.828,2.165-2.6c0.867-0.77,1.805-1.443,2.816-2.021
	c1.011-0.577,1.9-1.105,2.671-1.588c2.503-1.444,5.054-2.839,7.653-4.188c2.599-1.347,5.077-2.503,7.437-3.466
	c2.357-0.961,4.523-1.733,6.497-2.311c1.972-0.577,3.586-0.866,4.838-0.866c2.502,0,4.86,0.649,7.075,1.949
	c2.213,1.3,3.802,2.912,4.765,4.837c0.384,0.676,0.625,1.854,0.722,3.538c0.095,1.686,0.144,3.346,0.144,4.981
	c0,3.466-0.024,6.595-0.072,9.386c-0.049,2.793-0.072,5.487-0.072,8.086c0,2.6-0.025,5.271-0.072,8.015
	c-0.05,2.742-0.072,5.753-0.072,9.024c0,4.331,0.744,7.197,2.238,8.591c1.491,1.397,3.199,2.095,5.126,2.095
	c2.213,0,3.849-0.456,4.909-1.372c1.058-0.914,1.78-2.095,2.166-3.538h0.867C62.571,92.511,62.137,94.29,61.368,96.023"/>
</svg>
